<?xml version="1.0" encoding="UTF-8"?><svg id="Layer_1" xmlns="http://www.w3.org/2000/svg" viewBox="0 0 300.19 300.19"><defs><style>.cls-1{fill:none;stroke-width:5px;}.cls-1,.cls-2{stroke:#fff;stroke-miterlimit:10;}.cls-3{fill:#ac76a0;}.cls-2{fill:#7247a0;stroke-width:2px;}</style></defs><circle class="cls-3" cx="150.09" cy="150.09" r="150.09"/><path class="cls-2" d="M162.07,171.42h0c.61,0,1.1-.49,1.1-1.1,0-.61-.49-1.11-1.1-1.11l-40.78-.19h0c-.61,0-1.1.49-1.1,1.1,0,.61.49,1.11,1.1,1.11l11.47.05,29.3.14Z"/><path class="cls-2" d="M121.29,161.6l11.47.05,29.3.14h0c.61,0,1.1-.49,1.1-1.1,0-.61-.49-1.11-1.1-1.11l-40.78-.19h0c-.61,0-1.1.49-1.1,1.1,0,.61.49,1.11,1.1,1.11Z"/><path class="cls-2" d="M121.29,151.98l11.47.05,29.3.14h0c.61,0,1.1-.49,1.1-1.1,0-.61-.49-1.11-1.1-1.11l-40.78-.19h0c-.61,0-1.1.49-1.1,1.1,0,.61.49,1.11,1.1,1.11Z"/><path class="cls-2" d="M121.29,142.36l11.47.05,29.3.14h0c.61,0,1.1-.49,1.1-1.1,0-.61-.49-1.11-1.1-1.11l-40.78-.19h0c-.61,0-1.1.49-1.1,1.1,0,.61.49,1.11,1.1,1.11Z"/><path class="cls-2" d="M121.29,132.73l12.11.06,14.78.07,13.88.06h0c.61,0,1.1-.49,1.1-1.1,0-.61-.49-1.11-1.1-1.11l-25.92-.12h-2.74s-12.11-.07-12.11-.07h0c-.61,0-1.1.49-1.1,1.1,0,.61.49,1.11,1.1,1.11Z"/><path class="cls-2" d="M138.85,124.78l8.61.04,14.61.07h0c.61,0,1.1-.49,1.1-1.1,0-.61-.49-1.11-1.1-1.11l-14.61-.07-8.6-.04h0c-.61,0-1.1.49-1.1,1.1,0,.61.49,1.11,1.1,1.11Z"/><path class="cls-2" d="M192.51,115.66h-6.89v-5.32c0-1-.72-1.82-1.61-1.82h-6.81v-6.41c0-1-.77-1.82-1.73-1.82h-52.63v.04c-.3.03-.58.17-.78.41l-.05-.04-15.56,18.84.11.1-.02.03c-.15.18-.24.41-.28.64h-.08v60.25c0,1,.77,1.82,1.73,1.82h11.33v6.41c0,1,.72,1.82,1.61,1.82h9.96v5.32c0,1,.69,1.82,1.54,1.82h60.17c.85,0,1.54-.82,1.54-1.82v-78.44c0-1-.69-1.82-1.54-1.82ZM122.22,104.08l1.39,13.6c.02.22-.04.43-.17.6-.13.16-.32.26-.53.27l-13.2.78,12.51-15.25ZM108.38,180.04v-58.3l14.65-.86c.82-.05,1.56-.43,2.09-1.09.53-.65.77-1.49.68-2.35l-1.51-14.82h50.69v77.43h-66.6ZM121.3,188.27v-5.9h54.17c.95,0,1.73-.82,1.73-1.82v-69.7h6.37v77.43h-62.26ZM192.08,195.41h-59.31v-4.81h51.24c.89,0,1.61-.82,1.61-1.82v-70.8h6.46v77.43Z"/><circle class="cls-1" cx="150.11" cy="149.01" r="86.02"/></svg>