<?xml version="1.0" encoding="UTF-8"?><svg id="Layer_1" xmlns="http://www.w3.org/2000/svg" viewBox="0 0 300.19 300.19"><defs><style>.cls-1{stroke-width:5px;}.cls-1,.cls-2{fill:none;stroke:#fff;stroke-miterlimit:10;}.cls-2{stroke-width:4px;}.cls-3{fill:#fff;}.cls-4{fill:#ac76a0;}</style></defs><circle class="cls-4" cx="150.09" cy="150.09" r="150.09"/><path id="Woman_x5F_Symbol" class="cls-1" d="M201.99,89.68c0-8.43,6.84-15.27,15.27-15.27s15.27,6.84,15.27,15.27-6.84,15.27-15.27,15.27-15.27-6.84-15.27-15.27ZM251,188.83c-1.46-18.57-7.8-57.14-9.26-75.71-.23-2.85-2.72-4.98-5.58-4.79-7.94.44-10.99.67-18.9.67s-10.96-.22-18.91-.67c-2.86-.18-5.34,1.94-5.57,4.79-1.46,18.57-7.8,57.13-9.26,75.71-.22,2.85,2.33,5.38,5.68,5.6,3.09.2,4.63.28,7.71.43,2.16,7.02,3.6,14.33,6.69,25.08.21,2.86,3.43,5.29,7.17,5.37h12.98c3.74-.08,6.96-2.51,7.17-5.37,3.09-10.75,4.53-18.06,6.69-25.08,3.07-.15,4.62-.23,7.71-.43,3.36-.22,5.91-2.75,5.68-5.6Z"/><path class="cls-3" d="M238.83,164.56l-63.73-53.93c-3.53-2.99-8.94-.48-8.94,4.15v32.43h-85.71c-3.84,0-6.95,3.11-6.95,6.95v26.58c0,3.84,3.11,6.95,6.95,6.95h85.71v32.43c0,4.62,5.41,7.13,8.94,4.15l63.73-53.93c1.79-1.51,1.79-4.26,0-5.77Z"/><polygon class="cls-2" points="100.54 126.96 63 164.59 63 207.63 87.92 207.63 88.54 169.35 112.89 169.35 112.89 207.31 136.57 207.31 136.57 164.59 100.54 126.96"/><polygon class="cls-2" points="39.17 155.33 50.39 167.3 100.46 116.91 149.69 167.3 160.4 156.31 136.33 131.09 136.43 102.4 120.33 102.4 120.58 113.75 101.6 94.75 39.17 155.33"/></svg>