<?xml version="1.0" encoding="UTF-8"?><svg id="Layer_1" xmlns="http://www.w3.org/2000/svg" xmlns:xlink="http://www.w3.org/1999/xlink" viewBox="0 0 485 485"><defs><style>.cls-1{fill:none;}.cls-2{fill:#472244;}.cls-3,.cls-4{fill:#2d4a52;}.cls-5{isolation:isolate;}.cls-6{fill:#fff;}.cls-7{fill:#99c7be;}.cls-4{fill-rule:evenodd;}.cls-8{fill:#ac76a0;}.cls-9{fill:#353535;}</style><clipPath id="clippath"><path class="cls-1" d="M223.1,241.9h36.7c6.9,0,12.5,5.6,12.5,12.5v26.6c0,6.9-5.6,12.5-12.5,12.5h-36.7c-6.9,0-12.5-5.6-12.5-12.5v-26.6c0-6.9,5.6-12.5,12.5-12.5h0Z"/></clipPath><clipPath id="clippath-1"><path class="cls-1" d="M241.5,260.6c7.1,0,12.9-5.8,12.9-12.9v-15.5c0-7.1-5.8-12.9-12.9-12.9s-12.9,5.8-12.9,12.9v15.5c0,7.1,5.8,12.9,12.9,12.9M241.5,266.9c-10.6,0-19.2-8.6-19.2-19.2v-15.5c0-10.6,8.6-19.2,19.2-19.2s19.2,8.6,19.2,19.2v15.5c0,10.6-8.6,19.2-19.2,19.2h0Z"/></clipPath><clipPath id="clippath-2"><circle class="cls-1" cx="241.5" cy="264.8" r="6.5"/></clipPath></defs><g id="Layer_1-2"><rect class="cls-7" width="485" height="485" rx="25.5" ry="25.5"/><g id="House"><rect class="cls-8" x="170.4" y="122.6" width="141.8" height="141.8"/></g><polygon class="cls-2" points="279 88.9 279 61.8 293.4 61.8 293.4 103.9 279 88.9"/><polygon class="cls-2" points="241.9 53.6 166.3 123.5 316.4 123.5 241.9 53.6"/><rect class="cls-6" x="178" y="135.6" width="31.2" height="26.3"/><rect class="cls-6" x="178.6" y="175.3" width="31.2" height="26.3"/><rect class="cls-6" x="225.7" y="135.6" width="31.2" height="26.3"/><rect class="cls-6" x="273.5" y="135.6" width="31.2" height="26.3"/><rect class="cls-6" x="274.1" y="175.3" width="31.2" height="26.3"/><rect class="cls-6" x="226.2" y="175.3" width="31.2" height="26.3"/><rect class="cls-6" x="178.6" y="213" width="31.2" height="26.3"/><rect class="cls-6" x="274.1" y="211.1" width="31.2" height="26.3"/><rect id="Ground" class="cls-9" x="161.9" y="264.2" width="159.3" height="4.1"/><circle class="cls-6" cx="241.3" cy="92.2" r="11.7"/><path class="cls-4" d="M223.1,241.9h36.7c6.9,0,12.5,5.6,12.5,12.5v26.6c0,6.9-5.6,12.5-12.5,12.5h-36.7c-6.9,0-12.5-5.6-12.5-12.5v-26.6c0-6.9,5.6-12.5,12.5-12.5h0Z"/><path d="M223.1,241.9h36.7c6.9,0,12.5,5.6,12.5,12.5v26.6c0,6.9-5.6,12.5-12.5,12.5h-36.7c-6.9,0-12.5-5.6-12.5-12.5v-26.6c0-6.9,5.6-12.5,12.5-12.5h0Z"/><path class="cls-3" d="M241.5,260.6c7.1,0,12.9-5.8,12.9-12.9v-15.5c0-7.1-5.8-12.9-12.9-12.9s-12.9,5.8-12.9,12.9v15.5c0,7.1,5.8,12.9,12.9,12.9M241.5,266.9c-10.6,0-19.2-8.6-19.2-19.2v-15.5c0-10.6,8.6-19.2,19.2-19.2s19.2,8.6,19.2,19.2v15.5c0,10.6-8.6,19.2-19.2,19.2h0Z"/><path d="M241.5,260.6c7.1,0,12.9-5.8,12.9-12.9v-15.5c0-7.1-5.8-12.9-12.9-12.9s-12.9,5.8-12.9,12.9v15.5c0,7.1,5.8,12.9,12.9,12.9M241.5,266.9c-10.6,0-19.2-8.6-19.2-19.2v-15.5c0-10.6,8.6-19.2,19.2-19.2s19.2,8.6,19.2,19.2v15.5c0,10.6-8.6,19.2-19.2,19.2h0Z"/><path class="cls-4" d="M241.5,258.3c3.6,0,6.5,2.9,6.5,6.5s-2.9,6.5-6.5,6.5-6.5-2.9-6.5-6.5,2.9-6.5,6.5-6.5h0Z"/><g class="cls-5"><g class="cls-5"><path d="M93.9,344.1h-5v-10.2h-9.4v10.2h-5v-23.7h5v9.3h9.4v-9.3h5v23.7Z"/><path d="M115.9,335c0,1.5-.2,2.9-.6,4-.4,1.2-1,2.2-1.8,3s-1.7,1.4-2.8,1.8c-1.1.4-2.3.6-3.7.6s-2.4-.2-3.5-.6-2-1-2.8-1.8-1.4-1.8-1.8-3-.6-2.5-.6-4,.4-3.7,1.1-5.1,1.7-2.5,3-3.2,2.9-1.1,4.7-1.1,3.2.4,4.5,1.1,2.3,1.8,3.1,3.2c.8,1.4,1.1,3.1,1.1,5.1h.1ZM103.4,335c0,1.2.1,2.2.4,3s.7,1.4,1.2,1.8c.6.4,1.3.6,2.2.6s1.6-.2,2.1-.6.9-1,1.2-1.8c.3-.8.4-1.8.4-3s-.1-2.2-.4-3-.7-1.4-1.2-1.8-1.3-.6-2.2-.6c-1.3,0-2.3.4-2.8,1.3-.6.9-.9,2.2-.9,4v.1Z"/><path d="M136.6,326v18.1h-3.8l-.7-2.3h-.3c-.4.6-.9,1.1-1.5,1.5s-1.2.7-1.9.9-1.4.3-2.2.3c-1.3,0-2.4-.2-3.4-.7s-1.7-1.2-2.2-2.1c-.5-1-.8-2.2-.8-3.8v-11.8h4.9v10.6c0,1.3.2,2.3.7,2.9.5.7,1.2,1,2.2,1s1.8-.2,2.4-.7,1-1.1,1.2-2,.3-2,.3-3.3v-8.5h4.9l.2-.1Z"/><path d="M154.4,338.7c0,1.2-.3,2.3-.9,3.1-.6.8-1.4,1.5-2.6,1.9-1.1.4-2.6.7-4.3.7s-2.3,0-3.2-.2-1.8-.4-2.7-.8v-4.1c1,.4,2,.8,3.2,1.1,1.1.3,2.1.4,3,.4s1.6-.1,2.1-.4c.4-.3.6-.7.6-1.1s0-.6-.3-.8c-.2-.2-.5-.5-1.1-.8s-1.4-.7-2.6-1.2c-1.1-.5-2.1-1-2.8-1.4-.7-.5-1.3-1.1-1.6-1.7s-.5-1.5-.5-2.5c0-1.7.7-2.9,2-3.8,1.3-.8,3-1.3,5.2-1.3s2.2.1,3.2.3,2.1.6,3.2,1.1l-1.5,3.6c-.9-.4-1.7-.7-2.5-1-.8-.2-1.6-.4-2.4-.4s-1.3,0-1.6.3-.6.5-.6.9,0,.5.3.8c.2.2.6.5,1.1.8s1.3.6,2.4,1.1c1,.4,1.9.9,2.7,1.3s1.3,1,1.7,1.7.6,1.5.6,2.6l-.1-.2Z"/><path d="M160.7,318.9c.7,0,1.4.2,1.9.5s.8,1,.8,1.9-.3,1.6-.8,1.9c-.5.4-1.2.5-1.9.5s-1.4-.2-1.9-.5c-.5-.4-.8-1-.8-1.9s.3-1.6.8-1.9,1.2-.5,1.9-.5ZM163.2,326v18.1h-4.9v-18.1h4.9Z"/><path d="M178.7,325.7c1.9,0,3.5.5,4.7,1.6s1.8,2.7,1.8,5.1v11.8h-4.9v-10.6c0-1.3-.2-2.3-.7-2.9-.5-.7-1.2-1-2.2-1-1.5,0-2.5.5-3.1,1.5s-.8,2.5-.8,4.4v8.5h-4.9v-18.1h3.8l.7,2.3h.3c.4-.6.9-1.1,1.4-1.5.6-.4,1.2-.7,1.9-.9s1.4-.3,2.2-.3l-.2.1Z"/><path d="M195.5,352.1c-2.5,0-4.5-.4-5.8-1.3s-2-2.1-2-3.7.3-2,1-2.7,1.7-1.3,3-1.6c-.5-.2-1-.6-1.3-1.1s-.6-1-.6-1.6.2-1.3.6-1.7c.4-.5,1-.9,1.7-1.4-1-.4-1.7-1.1-2.3-2s-.8-2-.8-3.2.3-2.4.9-3.4c.6-.9,1.4-1.6,2.5-2.1s2.5-.7,4-.7.7,0,1.2,0,.9,0,1.2.1c.4,0,.6,0,.8.1h6.3v2.5l-2.8.7c.3.4.5.8.6,1.3s.2.9.2,1.4c0,1.9-.7,3.5-2,4.5-1.4,1.1-3.2,1.6-5.6,1.6-.6,0-1.1,0-1.6-.1-.2.2-.4.4-.6.6s-.2.4-.2.7,0,.4.3.6c.2.2.5.3.9.4.4,0,.9.1,1.5.1h3.1c2,0,3.5.4,4.5,1.3s1.6,2.1,1.6,3.8-.9,3.8-2.6,4.9c-1.8,1.2-4.3,1.7-7.6,1.7l-.1.3ZM195.7,348.9c1.2,0,2.2-.1,3-.3.8-.2,1.5-.5,2-.9s.7-.9.7-1.4-.1-.8-.4-1.1c-.3-.3-.7-.5-1.2-.6s-1.2-.2-2-.2h-2.6c-.6,0-1.1,0-1.6.3s-.9.5-1.1.8c-.3.4-.4.8-.4,1.2,0,.7.3,1.2,1,1.6s1.6.6,2.7.6h-.1ZM196.5,335.1c.9,0,1.6-.3,2-.9s.6-1.3.6-2.3-.2-1.9-.7-2.5c-.4-.5-1.1-.8-2-.8s-1.6.3-2,.8c-.5.5-.7,1.4-.7,2.5s.2,1.8.7,2.3,1.1.9,2,.9h.1Z"/><path d="M225.5,320.4c3.1,0,5.3.7,6.7,2s2.1,3.1,2.1,5.4-.2,2-.5,3c-.3.9-.8,1.8-1.5,2.5s-1.6,1.3-2.8,1.7-2.6.6-4.4.6h-2.2v8.4h-5v-23.7h7.6v.1ZM225.2,324.6h-2.3v7h1.7c.9,0,1.8-.1,2.4-.4.7-.2,1.2-.6,1.6-1.2.4-.5.6-1.2.6-2s-.3-2-1-2.6c-.6-.6-1.7-.9-3-.9v.1Z"/><path d="M248.5,325.7h.9c.3,0,.6,0,.8.1l-.4,4.6c-.2,0-.4,0-.7-.1s-.6,0-.8,0c-.6,0-1.3,0-1.9.2s-1.1.4-1.6.8-.9.8-1.1,1.4c-.3.6-.4,1.3-.4,2.2v9.2h-4.9v-18.1h3.7l.7,3h.2c.4-.6.8-1.2,1.3-1.7s1.1-.9,1.8-1.2,1.4-.5,2.2-.5l.2.1Z"/><path d="M269.9,335c0,1.5-.2,2.9-.6,4-.4,1.2-1,2.2-1.8,3s-1.7,1.4-2.8,1.8c-1.1.4-2.3.6-3.7.6s-2.4-.2-3.5-.6-2-1-2.8-1.8-1.4-1.8-1.8-3-.6-2.5-.6-4,.4-3.7,1.1-5.1c.7-1.4,1.7-2.5,3-3.2,1.3-.7,2.9-1.1,4.7-1.1s3.2.4,4.5,1.1,2.3,1.8,3.1,3.2c.8,1.4,1.1,3.1,1.1,5.1h.1ZM257.4,335c0,1.2.1,2.2.4,3s.7,1.4,1.2,1.8,1.3.6,2.2.6,1.6-.2,2.1-.6.9-1,1.2-1.8.4-1.8.4-3-.1-2.2-.4-3-.7-1.4-1.2-1.8-1.3-.6-2.2-.6c-1.3,0-2.3.4-2.8,1.3-.6.9-.9,2.2-.9,4v.1Z"/><path d="M281.6,340.5c.5,0,1.1,0,1.6-.2.5-.1,1-.2,1.5-.4v3.7c-.5.2-1.2.4-2,.6s-1.6.2-2.6.2-2-.2-2.9-.5-1.5-1-2-1.8-.7-2.1-.7-3.6v-8.7h-2.4v-2.1l2.7-1.7,1.4-3.8h3.2v3.9h5.1v3.7h-5.1v8.7c0,.7.2,1.2.6,1.5s.9.5,1.6.5h0Z"/><path d="M295.8,325.7c1.7,0,3.1.3,4.3,1,1.2.6,2.1,1.6,2.8,2.8.7,1.2,1,2.7,1,4.5v2.4h-11.7c0,1.4.5,2.5,1.3,3.3s1.9,1.2,3.3,1.2,2.2-.1,3.2-.4,1.9-.6,3-1.1v3.8c-.9.4-1.8.8-2.8,1s-2.2.3-3.6.3-3.4-.3-4.8-1-2.5-1.7-3.3-3.1-1.2-3.1-1.2-5.2.4-3.9,1.1-5.3,1.7-2.5,3-3.2,2.8-1.1,4.5-1.1l-.1.1ZM295.9,329.2c-1,0-1.8.3-2.4.9s-1,1.6-1.1,2.9h6.9c0-.7-.1-1.4-.4-2s-.6-1-1.1-1.4c-.5-.3-1.1-.5-1.9-.5v.1Z"/><path d="M315.3,344.4c-1.8,0-3.3-.3-4.6-1-1.3-.7-2.2-1.7-2.9-3-.7-1.4-1-3.1-1-5.3s.4-4,1.1-5.4c.8-1.4,1.8-2.4,3.1-3.1,1.3-.7,2.9-1,4.6-1s2.3.1,3.2.4,1.7.5,2.4.9l-1.5,3.8c-.8-.3-1.5-.6-2.2-.8-.7-.2-1.3-.3-2-.3s-1.6.2-2.2.6-1,1-1.3,1.8-.4,1.8-.4,3,.2,2.2.5,3,.7,1.4,1.3,1.8c.6.4,1.3.6,2.1.6s1.9-.1,2.7-.4c.8-.3,1.6-.7,2.3-1.2v4.2c-.8.5-1.5.8-2.4,1-.8.2-1.9.3-3.1.3l.3.1Z"/><path d="M332.7,340.5c.5,0,1.1,0,1.6-.2.5-.1,1-.2,1.5-.4v3.7c-.5.2-1.2.4-2,.6s-1.6.2-2.6.2-2-.2-2.9-.5-1.5-1-2-1.8-.7-2.1-.7-3.6v-8.7h-2.4v-2.1l2.7-1.7,1.4-3.8h3.2v3.9h5.1v3.7h-5.1v8.7c0,.7.2,1.2.6,1.5s.9.5,1.6.5h0Z"/><path d="M341.9,318.9c.7,0,1.4.2,1.9.5s.8,1,.8,1.9-.3,1.6-.8,1.9c-.5.4-1.2.5-1.9.5s-1.4-.2-1.9-.5c-.5-.4-.8-1-.8-1.9s.3-1.6.8-1.9,1.2-.5,1.9-.5ZM344.4,326v18.1h-4.9v-18.1h4.9Z"/><path d="M366,335c0,1.5-.2,2.9-.6,4-.4,1.2-1,2.2-1.8,3s-1.7,1.4-2.8,1.8c-1.1.4-2.3.6-3.7.6s-2.4-.2-3.5-.6-2-1-2.8-1.8-1.4-1.8-1.8-3-.6-2.5-.6-4,.4-3.7,1.1-5.1,1.7-2.5,3-3.2,2.9-1.1,4.7-1.1,3.2.4,4.5,1.1,2.3,1.8,3.1,3.2c.8,1.4,1.1,3.1,1.1,5.1h.1ZM353.5,335c0,1.2.1,2.2.4,3s.7,1.4,1.2,1.8,1.3.6,2.2.6,1.6-.2,2.1-.6.9-1,1.2-1.8.4-1.8.4-3-.1-2.2-.4-3-.7-1.4-1.2-1.8-1.3-.6-2.2-.6c-1.3,0-2.3.4-2.8,1.3-.6.9-.9,2.2-.9,4v.1Z"/><path d="M380.4,325.7c1.9,0,3.5.5,4.7,1.6s1.8,2.7,1.8,5.1v11.8h-4.9v-10.6c0-1.3-.2-2.3-.7-2.9-.5-.7-1.2-1-2.2-1-1.5,0-2.5.5-3.1,1.5s-.8,2.5-.8,4.4v8.5h-4.9v-18.1h3.8l.7,2.3h.3c.4-.6.9-1.1,1.4-1.5.6-.4,1.2-.7,1.9-.9s1.4-.3,2.2-.3l-.2.1Z"/><path d="M404.5,338.7c0,1.2-.3,2.3-.9,3.1-.6.8-1.4,1.5-2.6,1.9s-2.6.7-4.3.7-2.3,0-3.2-.2-1.8-.4-2.7-.8v-4.1c1,.4,2,.8,3.2,1.1s2.1.4,3,.4,1.6-.1,2.1-.4.6-.7.6-1.1,0-.6-.3-.8c-.2-.2-.5-.5-1.1-.8s-1.4-.7-2.6-1.2c-1.1-.5-2.1-1-2.8-1.4-.7-.5-1.3-1.1-1.6-1.7-.4-.7-.5-1.5-.5-2.5,0-1.7.7-2.9,2-3.8s3-1.3,5.2-1.3,2.2.1,3.2.3,2.1.6,3.2,1.1l-1.5,3.6c-.9-.4-1.7-.7-2.5-1-.8-.2-1.6-.4-2.4-.4s-1.3,0-1.6.3c-.4.2-.6.5-.6.9s0,.5.3.8c.2.2.6.5,1.1.8s1.3.6,2.4,1.1c1,.4,1.9.9,2.7,1.3s1.3,1,1.7,1.7.6,1.5.6,2.6l-.1-.2Z"/></g><g class="cls-5"><path d="M50.7,359.9c1.3,0,2.4.2,3.4.6s1.8,1,2.4,1.7.9,1.7.9,2.8-.5,2.8-1.4,3.8-2,1.9-3.4,2.7l4.6,4.5c.5-.7.8-1.5,1.2-2.4.3-.8.6-1.7.8-2.5h5.2c-.3,1.2-.8,2.6-1.5,4s-1.5,2.7-2.5,4l4.9,4.7h-6.1l-1.9-1.8c-.6.4-1.3.8-2,1.1-.7.3-1.5.6-2.3.7-.8.2-1.7.3-2.6.3-1.8,0-3.3-.3-4.6-.8-1.3-.6-2.3-1.3-2.9-2.4s-1-2.2-1-3.5.2-2.1.5-2.9.8-1.5,1.5-2.1,1.4-1.2,2.3-1.7c-.6-.7-1-1.3-1.4-1.9-.3-.6-.6-1.2-.7-1.7-.1-.6-.2-1.2-.2-1.8,0-1.1.3-2.1.9-2.9.6-.8,1.4-1.4,2.4-1.9,1-.4,2.2-.7,3.6-.7l-.1.1ZM49,373.8c-.4.3-.8.6-1.1,1-.3.3-.5.7-.7,1.1s-.2.8-.2,1.2c0,1,.4,1.7,1.1,2.2.7.5,1.6.8,2.7.8s1.4,0,2-.3c.6-.2,1.2-.4,1.7-.7l-5.4-5.3h-.1ZM50.7,363.7c-.6,0-1.1.1-1.6.4s-.8.8-.8,1.6.1,1.1.4,1.6c.3.5.7,1,1.1,1.6.9-.5,1.6-1,2.1-1.5s.7-1.1.7-1.8-.2-1.1-.7-1.4c-.4-.3-.9-.4-1.4-.4l.2-.1Z"/><path d="M90.6,383.9h-13.6v-23.7h13.6v4.1h-8.6v5.2h8v4.1h-8v6.1h8.6v4.2Z"/><path d="M100.1,383.9h-4.9v-25.2h4.9v25.2Z"/><path d="M107.7,358.7c.7,0,1.4.2,1.9.5s.8,1,.8,1.9-.3,1.6-.8,1.9c-.5.4-1.2.5-1.9.5s-1.4-.2-1.9-.5c-.5-.4-.8-1-.8-1.9s.3-1.6.8-1.9,1.2-.5,1.9-.5ZM110.2,365.8v18.1h-4.9v-18.1h4.9Z"/><path d="M120.7,391.9c-2.5,0-4.5-.4-5.8-1.3s-2-2.1-2-3.7.3-2,1-2.7,1.7-1.3,3-1.6c-.5-.2-1-.6-1.3-1.1s-.6-1-.6-1.6.2-1.3.6-1.7c.4-.5,1-.9,1.7-1.4-1-.4-1.7-1.1-2.3-2-.6-.9-.8-2-.8-3.2s.3-2.4.9-3.4c.6-.9,1.4-1.6,2.5-2.1s2.5-.7,4-.7.7,0,1.2,0c.4,0,.9,0,1.2.1.4,0,.6,0,.8.1h6.3v2.5l-2.8.7c.3.4.5.8.6,1.3s.2.9.2,1.4c0,1.9-.7,3.5-2,4.5-1.4,1.1-3.2,1.6-5.6,1.6-.6,0-1.1,0-1.6-.1-.2.2-.4.4-.6.6-.1.2-.2.4-.2.7s.1.4.3.6c.2.2.5.3.9.4.4,0,.9.1,1.5.1h3.1c2,0,3.5.4,4.5,1.3s1.6,2.1,1.6,3.8-.9,3.8-2.6,4.9c-1.8,1.2-4.3,1.7-7.6,1.7l-.1.3ZM120.9,388.7c1.2,0,2.2-.1,3-.3.8-.2,1.5-.5,2-.9s.7-.9.7-1.4-.1-.8-.4-1.1c-.3-.3-.7-.5-1.2-.6s-1.2-.2-2-.2h-2.6c-.6,0-1.1,0-1.6.3s-.9.5-1.1.8-.4.8-.4,1.2c0,.7.3,1.2,1,1.6s1.6.6,2.7.6h-.1ZM121.7,374.9c.9,0,1.6-.3,2-.9s.6-1.3.6-2.3-.2-1.9-.7-2.5c-.4-.5-1.1-.8-2-.8s-1.6.3-2,.8c-.5.5-.7,1.4-.7,2.5s.2,1.8.7,2.3,1.1.9,2,.9h.1Z"/><path d="M136.6,358.7c.7,0,1.4.2,1.9.5s.8,1,.8,1.9-.3,1.6-.8,1.9c-.5.4-1.2.5-1.9.5s-1.4-.2-1.9-.5c-.5-.4-.8-1-.8-1.9s.3-1.6.8-1.9,1.2-.5,1.9-.5ZM139,365.8v18.1h-4.9v-18.1h4.9Z"/><path d="M149.2,358.7v7.9c0,.7,0,1.2-.1,1.6h.2c.5-.7,1.1-1.4,1.9-1.9.8-.5,1.9-.8,3.2-.8,2,0,3.7.8,4.9,2.4,1.3,1.6,1.9,3.9,1.9,7s-.3,3.8-.9,5.2c-.6,1.4-1.4,2.5-2.4,3.2s-2.3,1.1-3.6,1.1-2.4-.2-3.1-.7c-.8-.5-1.4-1-1.9-1.6h-.3l-.8,2h-3.8v-25.2h4.9l-.1-.2ZM152.7,369.4c-.9,0-1.5.2-2.1.5-.5.4-.9.9-1.1,1.6-.2.7-.4,1.6-.4,2.7v.5c0,1.8.3,3.1.8,4s1.5,1.4,2.8,1.4,1.8-.5,2.4-1.4.9-2.3.9-4.1-.3-3.1-.9-4-1.4-1.3-2.5-1.3l.1.1Z"/><path d="M167.7,358.7c.7,0,1.4.2,1.9.5s.8,1,.8,1.9-.3,1.6-.8,1.9c-.5.4-1.2.5-1.9.5s-1.4-.2-1.9-.5c-.5-.4-.8-1-.8-1.9s.3-1.6.8-1.9,1.2-.5,1.9-.5ZM170.1,365.8v18.1h-4.9v-18.1h4.9Z"/><path d="M180.3,383.9h-4.9v-25.2h4.9v25.2Z"/><path d="M187.9,358.7c.7,0,1.4.2,1.9.5s.8,1,.8,1.9-.3,1.6-.8,1.9c-.5.4-1.2.5-1.9.5s-1.4-.2-1.9-.5c-.5-.4-.8-1-.8-1.9s.3-1.6.8-1.9,1.2-.5,1.9-.5ZM190.4,365.8v18.1h-4.9v-18.1h4.9Z"/><path d="M203.2,380.3c.5,0,1.1,0,1.6-.2.5-.1,1-.2,1.5-.4v3.7c-.5.2-1.2.4-2,.6s-1.6.2-2.6.2-2-.2-2.9-.5-1.5-1-2-1.8-.7-2.1-.7-3.6v-8.7h-2.4v-2.1l2.7-1.7,1.4-3.8h3.2v3.9h5.1v3.7h-5.1v8.7c0,.7.2,1.2.6,1.5s.9.5,1.6.5h0Z"/><path d="M207.4,365.8h5.4l3.4,10.2c.1.3.2.7.3,1,0,.3.1.7.2,1,0,.4,0,.7.1,1.1h0c0-.6.2-1.1.3-1.6s.3-1,.4-1.5l3.4-10.2h5.3l-7.7,20.4c-.5,1.3-1.1,2.3-1.8,3.1-.7.8-1.6,1.5-2.6,1.9s-2,.6-3.2.6h-1.5c-.4,0-.8-.1-1.1-.2v-3.9c.2,0,.5.1.9.1h1.1c.7,0,1.3-.1,1.8-.4s.9-.7,1.2-1.2.6-1,.8-1.6l.3-.9-7.2-18,.2.1Z"/><path d="M257.1,360.3v15.3c0,1.6-.4,3.1-1.1,4.4-.7,1.3-1.8,2.4-3.3,3.1s-3.3,1.2-5.5,1.2c-3.1,0-5.5-.8-7.2-2.4-1.6-1.6-2.5-3.7-2.5-6.3v-15.3h5v14.5c0,2,.4,3.3,1.2,4.1.8.8,2,1.2,3.5,1.2s2-.2,2.7-.6,1.2-1,1.5-1.7c.3-.8.5-1.8.5-3v-14.5h5.2Z"/><path d="M272.8,365.5c1.9,0,3.5.5,4.7,1.6s1.8,2.7,1.8,5.1v11.8h-4.9v-10.6c0-1.3-.2-2.3-.7-2.9-.5-.7-1.2-1-2.2-1-1.5,0-2.5.5-3.1,1.5s-.8,2.5-.8,4.4v8.5h-4.9v-18.1h3.8l.7,2.3h.3c.4-.6.9-1.1,1.4-1.5.6-.4,1.2-.7,1.9-.9.7-.2,1.4-.3,2.2-.3l-.2.1Z"/><path d="M290.1,384.3c-2,0-3.7-.8-4.9-2.4s-1.9-3.9-1.9-7,.6-5.4,1.9-7,3-2.4,5-2.4,1.6.1,2.3.4c.7.2,1.2.6,1.7,1s.9.8,1.2,1.3h.2c0-.3-.1-.9-.2-1.5s-.1-1.4-.1-2.1v-5.8h5v25.2h-3.8l-1-2.3h-.2c-.3.5-.7.9-1.2,1.4-.5.4-1,.7-1.7,1s-1.4.4-2.3.4v-.2ZM291.8,380.3c1.3,0,2.3-.4,2.9-1.2.6-.8.9-2,.9-3.6v-.5c0-1.8-.3-3.1-.8-4s-1.5-1.4-3-1.4-1.9.5-2.6,1.4c-.6.9-.9,2.3-.9,4.1s.3,3.1.9,4,1.5,1.3,2.6,1.3v-.1Z"/><path d="M312.8,365.5c1.7,0,3.1.3,4.3,1,1.2.6,2.1,1.6,2.8,2.8.7,1.2,1,2.7,1,4.5v2.4h-11.7c0,1.4.5,2.5,1.3,3.3s1.9,1.2,3.3,1.2,2.2-.1,3.2-.4c1-.2,1.9-.6,3-1.1v3.8c-.9.4-1.8.8-2.8,1s-2.2.3-3.6.3-3.4-.3-4.8-1-2.5-1.7-3.3-3.1-1.2-3.1-1.2-5.2.4-3.9,1.1-5.3,1.7-2.5,3-3.2,2.8-1.1,4.5-1.1l-.1.1ZM312.8,369c-1,0-1.8.3-2.4.9s-1,1.6-1.1,2.9h6.9c0-.7-.1-1.4-.4-2s-.6-1-1.1-1.4-1.1-.5-1.9-.5v.1Z"/><path d="M335,365.5h.9c.3,0,.6,0,.8.1l-.4,4.6c-.2,0-.4,0-.7-.1s-.6,0-.8,0c-.6,0-1.3,0-1.9.2s-1.1.4-1.6.8-.8.8-1.1,1.4c-.3.6-.4,1.3-.4,2.2v9.2h-4.9v-18.1h3.7l.7,3h.2c.4-.6.8-1.2,1.3-1.7s1.1-.9,1.8-1.2,1.4-.5,2.2-.5l.2.1Z"/><path d="M367.6,360.3l-8,23.7h-5.5l-8-23.7h5.1l4.5,14.1c0,.2.2.7.4,1.3.2.7.3,1.3.5,2.1.2.7.3,1.3.4,1.8,0-.5.2-1.1.3-1.8.2-.7.3-1.4.5-2.1s.3-1.1.4-1.4l4.5-14.1h5.1l-.2.1Z"/><path d="M385,383.9l-1.7-5.6h-8.6l-1.7,5.6h-5.4l8.4-23.8h6.1l8.4,23.8h-5.5ZM382.1,374.1l-1.7-5.5c-.1-.4-.3-.8-.4-1.4-.2-.6-.4-1.2-.5-1.8-.2-.6-.3-1.1-.4-1.6-.1.4-.3,1-.4,1.6-.2.7-.4,1.3-.5,1.9-.2.6-.3,1-.4,1.2l-1.7,5.5h6.2l-.2.1Z"/><path d="M422.5,360.3l-6,23.7h-5.7l-3.2-12.4c0-.2-.2-.6-.3-1.1-.1-.5-.2-1-.3-1.6-.1-.6-.2-1.1-.3-1.6,0-.5-.2-.9-.2-1.2,0,.3,0,.7-.2,1.2,0,.5-.2,1-.3,1.6s-.2,1.1-.3,1.6c-.1.5-.2.9-.3,1.1l-3.2,12.4h-5.7l-6-23.7h4.9l3,12.9c0,.4.2.9.3,1.4s.2,1.1.3,1.7c.1.6.2,1.2.3,1.7,0,.5.2,1,.2,1.4,0-.4.1-.9.2-1.4,0-.5.2-1.1.3-1.7.1-.6.2-1.1.3-1.6.1-.5.2-.9.3-1.2l3.5-13.3h4.7l3.5,13.3c0,.3.2.7.3,1.2.1.5.2,1,.3,1.6.1.6.2,1.1.3,1.7,0,.5.2,1,.2,1.4,0-.5.2-1.2.3-2,.1-.8.3-1.5.4-2.3.2-.8.3-1.4.4-1.9l3-12.9h5Z"/><path d="M440,383.9l-1.7-5.6h-8.6l-1.7,5.6h-5.4l8.4-23.8h6.1l8.4,23.8h-5.5ZM437.1,374.1l-1.7-5.5c-.1-.4-.3-.8-.4-1.4-.2-.6-.4-1.2-.5-1.8-.2-.6-.3-1.1-.4-1.6-.1.4-.3,1-.4,1.6-.2.7-.4,1.3-.5,1.9-.2.6-.3,1-.4,1.2l-1.7,5.5h6.2l-.2.1Z"/></g></g><path class="cls-6" d="M248,264.8c0-3.6-2.9-6.5-6.5-6.5s-6.5,2.9-6.5,6.5,1.7,5.1,4.2,6.1l-2.6,10.8h9.5l-2.7-10.7c2.7-.8,4.6-3.3,4.6-6.2h0Z"/></g></svg>