<?xml version="1.0" encoding="UTF-8"?><svg id="Layer_1" xmlns="http://www.w3.org/2000/svg" viewBox="0 0 300.19 300.19"><defs><style>.cls-1{fill-rule:evenodd;}.cls-1,.cls-2{fill:#fff;}.cls-2{stroke:#fff;stroke-miterlimit:10;stroke-width:2px;}.cls-3{fill:#ac76a0;}</style></defs><circle class="cls-3" cx="150.09" cy="150.09" r="150.09"/><path class="cls-2" d="M98.62,172.55h-26.01v-41.9l36.21-36.29,34.77,36.31v41.59h-24.89v-35.08h-19.52l-.57,35.37ZM75.62,169.55h20.05l.57-35.37h25.47v35.08h18.89v-37.38l-31.81-33.22-33.17,33.24v37.66Z"/><path class="cls-2" d="M62.43,135.85l-12.44-13.27,59.81-58.04,15.94,15.96-.18-8.28h17.92l-.1,27.41,22.83,23.92-11.98,12.29-45.5-46.58-46.3,46.59ZM108.74,84.98l45.48,46.56,7.82-8.01-21.66-22.7.09-25.61h-11.84l.28,12.69-19.13-19.15-55.57,53.93,8.3,8.85,46.25-46.54Z"/><path class="cls-1" d="M180.93,175.95l-2.07.91-50.63,17.82c-5.89,2.07-8.45-.46-11.99-.44-6.71.05-11.42,6.82-9.04,13.34,2.82,7.73,13.12,8.81,17.45,2.08,1.7-2.64,3.96-4.43,6.91-5.47l50.63-17.82c2.07-.73,4.11-.96,6.25-.67l-4.3-12.23c-.95,1-2,1.82-3.21,2.47h0ZM223.05,208.51c.14-.06.29-.11.44-.15l27.91-9.82-4.23-12.02-51.35,18.07,4.23,12.02,23-8.09h0ZM250.29,180.02l4.4,8.01,3.42,9.73c.47,1.33.35,2.72-.21,3.89-.41.85-1.05,1.59-1.88,2.11l-.16.18-24.99,8.79-7.21,2.54-22.84,8.04c-2.65.93-5.56-.46-6.49-3.1l-5.23-14.85c-.47-1.33-.35-2.72.21-3.89.41-.85,1.05-1.59,1.88-2.11l.16-.18,1.61-.57-2.01-5.71c-2.67-.38-3.96-1.23-6.57-.31l-50.63,17.82c-3.75,1.32-3.23,3.69-7.18,6.81-1.52,1.2-2.97,1.95-4.88,2.64h0c-8.5,2.87-17.71-1.67-20.76-10.22l-.07-.2h0c-4.39-12.99,7.89-25.18,20.61-20.93,1.57.53,2.98.52,4.55-.03l46.79-16.46,1.94-.66,4.61-2.43,2.23-2.63-1.63-4.63c-2,.7-3.53,1.45-5.68.42-.85-.41-1.59-1.05-2.11-1.88l-.18-.16-5.69-16.27c-.46-2.99.83-5.06,3.7-6.07l22.39-7.88,12.37-4.35,18.99-6.68c2.65-.93,5.56.46,6.49,3.1l.96,2.74,2.54,7.21,1.73,4.91c.93,2.65-.46,5.56-3.1,6.49l-1.8.63,5.46,15.5,2.54,7.21,5.01,14.23c2.47-.87,4.36-1.91,6.71-.78.58.28,1.12.67,1.56,1.16M231.8,167.18l5.56,15.8-38.17,13.43-13-36.94,38.17-13.43,7.28,20.7c.04.15.09.3.16.44h0ZM226.98,132.44l-2.44-6.95-51.35,18.07,4.23,12.02,51.35-18.07-1.78-5.07h0Z"/></svg>