<?xml version="1.0" encoding="UTF-8"?><svg id="Layer_1" xmlns="http://www.w3.org/2000/svg" viewBox="0 0 300.19 300.19"><defs><style>.cls-1{fill:none;stroke:#fff;stroke-miterlimit:10;stroke-width:8px;}.cls-2{fill:#fff;}.cls-3{fill:#ac76a0;}</style></defs><circle class="cls-3" cx="150.09" cy="150.09" r="150.09"/><path class="cls-2" d="M206.94,136.34c2.33,1.26,3.27,4.12,2.24,6.55-2.08,4.91-7.14,16.83-19.44,45.84-3.61,8.51-8.47,16.24-15.71,21.71-7.49,5.65-16.37,8.66-25.71,8.71h-.23c-11.62,0-22.58-4.62-30.88-13.01-8.28-8.37-12.84-19.41-12.84-31.08v-54.98c0-3.92,3.19-7.17,7.1-7.24h.14c4,0,7.25,3.32,7.25,7.4v25.09c0,1.17.84,2.21,1.99,2.36,1.4.18,2.6-.91,2.6-2.28v-47.47c0-4.34,3.53-7.95,7.87-8.03.05,0,.1,0,.15,0,4.43,0,8.03,3.68,8.03,8.2v43.88c0,1.17.84,2.21,1.99,2.36,1.4.18,2.6-.91,2.6-2.28v-53.49c0-4.34,3.53-7.94,7.87-8.02.05,0,.1,0,.15,0,4.43,0,8.03,3.68,8.03,8.2v54.01c0,1.17.84,2.21,1.99,2.36,1.4.18,2.6-.91,2.6-2.28v-42.59c0-4.34,3.53-7.95,7.87-8.03h.15c4.43,0,8.03,3.68,8.03,8.2,0,.47-.01,39.53,0,56.83,0,.96.72,1.76,1.68,1.86.07,0,.13.01.2.01.37,0,.73-.11,1.03-.3.3-.19.54-.47.69-.82,5.53-12.55,8.05-22.27,20.09-22.27h.01c.82,0,1.64.19,2.36.58.02.01.04.02.06.03Z"/><path class="cls-1" d="M59,230.32v-118.06c0-3.15,1.49-6.11,4.01-7.98l82.03-60.93c3.53-2.63,8.38-2.61,11.9.03l81.09,60.89c2.5,1.88,3.97,4.82,3.97,7.95v118.09c0,5.49-4.45,9.94-9.94,9.94H68.94c-5.49,0-9.94-4.45-9.94-9.94Z"/></svg>