<?xml version="1.0" encoding="UTF-8"?><svg id="Layer_1" xmlns="http://www.w3.org/2000/svg" viewBox="0 0 300.19 300.19"><defs><style>.cls-1{fill:#ac76a0;}.cls-2{fill:#fff;stroke:#fff;stroke-miterlimit:10;}</style></defs><circle class="cls-1" cx="150.09" cy="150.09" r="150.09"/><path class="cls-2" d="M169.49,108.41h-84.74c-2.57,0-4.65,2.09-4.65,4.65v75.42c0,2.78,2.26,5.05,5.05,5.05h7.67c1.29,0,2.34-1.01,2.4-2.3.18-4.1,1.89-7.96,4.8-10.87,3.11-3.11,7.23-4.82,11.63-4.82s8.52,1.71,11.63,4.82c2.91,2.91,4.61,6.77,4.8,10.87.06,1.29,1.11,2.3,2.4,2.3h53.24c1.14,0,2.06-.89,2.09-2.03.12-4.2,1.83-8.16,4.81-11.13,3.11-3.11,7.23-4.82,11.62-4.82s8.52,1.71,11.63,4.82c2.85,2.85,4.55,6.62,4.78,10.62.09,1.43,1.27,2.55,2.71,2.55h7.19c2.78,0,5.04-2.26,5.05-5.04l.06-26.03c0-3.19-2.25-5.98-5.37-6.63l-11.31-2.36c-.42-.09-.81-.29-1.12-.59l-22.58-21.8c-.88-.84-2.03-1.31-3.24-1.31h-15.87v-16.71c0-2.57-2.09-4.65-4.65-4.65h0ZM85.14,190.2c-.94,0-1.71-.77-1.71-1.71v-75.42c0-.73.59-1.32,1.32-1.32h84.74c.73,0,1.32.59,1.32,1.32v17.32c0,1.51,1.22,2.73,2.73,2.73h16.47c.35,0,.68.13.93.37l22.58,21.8c.76.74,1.72,1.24,2.75,1.46l11.31,2.36c1.58.33,2.72,1.74,2.72,3.35l-.06,26.03c0,.94-.77,1.71-1.71,1.71h-6.61c-.41-4.6-2.43-8.91-5.71-12.19-3.74-3.74-8.7-5.79-13.99-5.79s-10.25,2.06-13.99,5.79c-3.3,3.3-5.3,7.59-5.71,12.19h-51.19c-.41-4.6-2.42-8.9-5.71-12.19-3.74-3.74-8.7-5.79-13.99-5.79s-10.25,2.06-13.99,5.79c-3.29,3.29-5.3,7.59-5.71,12.19h-6.8ZM186.75,136.37h-10.92c-1.62,0-2.95,1.32-2.95,2.95v17.47c0,1.62,1.32,2.95,2.95,2.95h27.5c1.25,0,2.26-1.01,2.26-2.26v-3.28c0-1-.41-1.97-1.13-2.67l-14.29-13.78c-.92-.89-2.13-1.38-3.41-1.38h0ZM176.22,156.4v-16.69h10.53c.41,0,.8.16,1.1.44l14.29,13.78c.07.07.11.16.11.26v2.2h-26.03Z"/><path class="cls-2" d="M111.64,178.22c-7.59,0-13.77,6.18-13.77,13.77s6.18,13.77,13.77,13.77,13.77-6.18,13.77-13.77-6.18-13.77-13.77-13.77h0ZM111.64,202.42c-5.75,0-10.43-4.68-10.43-10.43s4.68-10.43,10.43-10.43,10.43,4.68,10.43,10.43-4.68,10.43-10.43,10.43h0Z"/><path class="cls-2" d="M202.35,178.21c-7.59,0-13.77,6.18-13.77,13.77s6.18,13.77,13.77,13.77,13.77-6.18,13.77-13.77-6.18-13.77-13.77-13.77h0ZM202.35,202.41c-5.75,0-10.43-4.68-10.43-10.43s4.68-10.43,10.43-10.43,10.43,4.68,10.43,10.43-4.68,10.43-10.43,10.43h0Z"/><path class="cls-2" d="M154.03,92.68c-3.22,0-5.84,2.62-5.84,5.84v4.22c0,1.44,1.17,2.62,2.62,2.62h6.45c1.44,0,2.62-1.17,2.62-2.62v-4.22c0-3.22-2.62-5.84-5.84-5.84h0ZM151.53,102.03v-3.51c0-1.38,1.12-2.5,2.5-2.5s2.5,1.12,2.5,2.5v3.51h-5.01Z"/><path class="cls-2" d="M172.76,100.36h-9.25c-.92,0-1.67.75-1.67,1.67s.75,1.67,1.67,1.67h9.25c.92,0,1.67-.75,1.67-1.67s-.75-1.67-1.67-1.67h0Z"/><path class="cls-2" d="M144.64,100.36h-9.25c-.92,0-1.67.75-1.67,1.67s.75,1.67,1.67,1.67h9.25c.92,0,1.67-.75,1.67-1.67s-.75-1.67-1.67-1.67h0Z"/><path class="cls-2" d="M154.03,78.13c-.92,0-1.67.75-1.67,1.67v9.25c0,.92.75,1.67,1.67,1.67s1.67-.75,1.67-1.67v-9.25c0-.92-.75-1.67-1.67-1.67h0Z"/><path class="cls-2" d="M169.39,86.15c-.34,0-.68.1-.97.31l-7.52,5.38c-.75.54-.92,1.58-.39,2.33.33.46.84.7,1.36.7.34,0,.68-.1.97-.31l7.52-5.38c.75-.54.92-1.58.39-2.33-.33-.46-.84-.7-1.36-.7h0Z"/><path class="cls-2" d="M138.67,86.15c-.52,0-1.03.24-1.36.7-.54.75-.36,1.79.39,2.33l7.52,5.38c.29.21.63.31.97.31.52,0,1.03-.24,1.36-.7.54-.75.36-1.79-.39-2.33l-7.52-5.38c-.29-.21-.63-.31-.97-.31h0Z"/><path class="cls-2" d="M133.15,119.65h-12.06c-.92,0-1.67.75-1.67,1.67v11.8h-11.8c-.92,0-1.67.75-1.67,1.67v12.06c0,.92.75,1.67,1.67,1.67h11.8v11.8c0,.92.75,1.67,1.67,1.67h12.06c.92,0,1.67-.75,1.67-1.67v-11.8h11.8c.92,0,1.67-.75,1.67-1.67v-12.06c0-.92-.75-1.67-1.67-1.67h-11.8v-11.8c0-.92-.75-1.67-1.67-1.67h0ZM109.29,145.18v-8.72h11.8c.92,0,1.67-.75,1.67-1.67v-11.8h8.72v11.8c0,.92.75,1.67,1.67,1.67h11.8v8.72h-11.8c-.92,0-1.67.75-1.67,1.67v11.8h-8.72v-11.8c0-.92-.75-1.67-1.67-1.67h-11.8Z"/></svg>