<?xml version="1.0" encoding="UTF-8"?><svg id="Layer_1" xmlns="http://www.w3.org/2000/svg" viewBox="0 0 300.19 300.19"><defs><style>.cls-1{fill:#fff;}.cls-2{fill:#ac76a0;}</style></defs><circle class="cls-2" cx="150.09" cy="150.09" r="150.09"/><path class="cls-1" d="M150.59,236.97c-35.84,0-65-29.16-65-65v-56.04c0-1.51,1.23-2.75,2.75-2.75h10.56v-13c0-14.12,5.82-27.93,15.96-37.88,9.72-9.54,22.4-14.79,35.7-14.79.35,0,.7,0,1.05.01,27.95.53,50.69,23.72,50.69,51.69v13.97h10.56c1.51,0,2.75,1.23,2.75,2.75v56.04c0,35.84-29.16,65-65,65ZM91.09,171.97c0,32.81,26.69,59.51,59.51,59.51s59.51-26.69,59.51-59.51v-53.29h-119.01v53.29ZM150.54,60.06c.36,0,.73,0,1.09.02,21.03.54,38.13,18.47,38.13,39.97v13.15h7.04v-13.97c0-25-20.32-45.72-45.3-46.2-.3,0-.6,0-.9,0-11.88,0-23.21,4.69-31.9,13.22-9.09,8.92-14.31,21.3-14.31,33.95v13h7.04v-13.97c0-10.65,4.2-20.61,11.83-28.05,7.35-7.17,17.04-11.12,27.27-11.12ZM150.61,65.55c-8.84,0-17.19,3.39-23.52,9.55-6.56,6.39-10.17,14.96-10.17,24.12v13.97h67.34v-13.15c0-18.55-14.71-34.01-32.78-34.48-.29,0-.58-.01-.87-.01Z"/><path class="cls-1" d="M150.55,48.02c.35,0,.7,0,1.04.01,27.68.53,50.2,23.49,50.2,51.19v14.47h11.06c1.24,0,2.25,1.01,2.25,2.25v56.04c0,35.57-28.93,64.5-64.5,64.5s-64.5-28.93-64.5-64.5v-56.04c0-1.24,1.01-2.25,2.25-2.25h11.06v-13.5c0-13.99,5.76-27.66,15.81-37.52,9.63-9.45,22.18-14.65,35.34-14.65h0M103.89,113.69h8.04v-14.47c0-10.52,4.15-20.35,11.68-27.69,7.26-7.08,16.82-10.97,26.93-10.97.36,0,.72,0,1.07.01,20.76.53,37.64,18.24,37.64,39.47v13.65h8.04v-14.47c0-25.27-20.54-46.21-45.79-46.7-.3,0-.6,0-.91,0-12.01,0-23.46,4.75-32.25,13.36-9.19,9.02-14.46,21.52-14.46,34.31v13.5M116.42,113.69h68.34v-13.65c0-18.81-14.92-34.51-33.27-34.98-.3,0-.59-.01-.88-.01-8.97,0-17.45,3.44-23.87,9.7-6.66,6.49-10.32,15.18-10.32,24.47v14.47M150.59,231.98c33.09,0,60.01-26.92,60.01-60.01v-53.79h-120.01v53.79c0,33.09,26.92,60.01,60.01,60.01M150.55,47.02c-13.46,0-26.22,5.3-36.04,14.93-10.24,10.04-16.11,23.98-16.11,38.23v12.5h-10.06c-1.79,0-3.25,1.45-3.25,3.25v56.04c0,36.12,29.38,65.5,65.5,65.5s65.5-29.38,65.5-65.5v-56.04c0-1.79-1.45-3.25-3.25-3.25h-10.06v-13.47c0-28.24-22.96-51.65-51.18-52.19-.35,0-.71-.01-1.06-.01h0ZM104.89,112.69v-12.5c0-12.52,5.16-24.77,14.16-33.6,8.61-8.44,19.77-13.08,31.55-13.08.3,0,.59,0,.89,0,24.71.47,44.81,20.97,44.81,45.7v13.47h-6.04v-12.65c0-21.77-17.32-39.92-38.62-40.47-.37,0-.73-.01-1.1-.01-10.39,0-20.16,3.98-27.63,11.26-7.73,7.53-11.98,17.62-11.98,28.41v13.47h-6.04ZM117.42,112.69v-13.47c0-9.02,3.56-17.46,10.02-23.76,6.25-6.1,14.47-9.41,23.17-9.41.29,0,.57,0,.86.01,17.81.46,32.29,15.7,32.29,33.98v12.65h-66.34ZM150.59,230.98c-32.54,0-59.01-26.47-59.01-59.01v-52.79h118.01v52.79c0,32.54-26.47,59.01-59.01,59.01h0Z"/><path class="cls-1" d="M140.55,194.48c-.85,0-1.64-.38-2.16-1.05-.52-.67-.71-1.53-.5-2.35l4.47-18.02-.28-.2c-3.68-2.63-5.8-6.9-5.8-11.72,0-3.91,1.63-7.7,4.47-10.4,2.67-2.53,6.18-3.92,9.87-3.92.25,0,.51,0,.77.02,7.56.41,13.63,7.14,13.52,15-.06,4.47-2.17,8.48-5.79,11.03l-.28.2,4.47,18.01c.21.83.02,1.68-.5,2.35-.52.67-1.31,1.05-2.16,1.05h-20.1ZM150.59,152.31c-2.27,0-4.42.86-6.07,2.42-1.78,1.68-2.76,3.96-2.76,6.41,0,3.61,1.87,6.69,4.88,8.04,1.21.55,1.86,1.88,1.54,3.17l-4.13,16.64h13.08l-4.13-16.64c-.32-1.29.33-2.62,1.54-3.17,2.96-1.33,4.83-4.18,4.87-7.42.07-4.95-3.67-9.18-8.33-9.44-.17,0-.33-.01-.49-.01Z"/><path class="cls-1" d="M150.62,147.32c.25,0,.49,0,.74.02,7.3.39,13.16,6.89,13.05,14.49-.06,4.3-2.09,8.18-5.57,10.62l-.56.39.16.66,4.38,17.68c.17.67.02,1.38-.41,1.92-.43.55-1.07.86-1.77.86h-20.1c-.7,0-1.34-.31-1.77-.86-.43-.55-.58-1.25-.41-1.93l4.39-17.69.16-.66-.55-.39c-3.55-2.54-5.59-6.66-5.59-11.31,0-3.78,1.57-7.43,4.32-10.03,2.58-2.44,5.96-3.78,9.53-3.78M143.42,189.48h14.35l-.31-1.24-3.97-16.03c-.26-1.05.27-2.14,1.26-2.59,3.14-1.41,5.12-4.43,5.17-7.87.07-5.22-3.88-9.68-8.8-9.94-.17,0-.35-.01-.52-.01-2.4,0-4.67.91-6.41,2.55-1.88,1.78-2.91,4.18-2.91,6.77,0,3.8,1.98,7.06,5.17,8.5.99.45,1.52,1.53,1.26,2.59l-3.97,16.03-.31,1.24M150.62,146.32c-3.82,0-7.42,1.41-10.22,4.06-2.94,2.79-4.63,6.71-4.63,10.76,0,5,2.25,9.44,6.01,12.13l-4.39,17.69c-.24.97-.02,1.99.59,2.78.62.79,1.56,1.25,2.56,1.25h20.1c1,0,1.94-.46,2.56-1.25.62-.79.83-1.81.59-2.78l-4.38-17.68c3.69-2.6,5.93-6.77,6-11.43.11-8.13-6.17-15.08-14-15.5-.26-.01-.53-.02-.79-.02h0ZM144.7,188.48l3.97-16.03c.38-1.52-.39-3.1-1.82-3.74-2.83-1.27-4.58-4.18-4.58-7.59,0-2.31.92-4.46,2.6-6.04,1.56-1.48,3.58-2.28,5.72-2.28.16,0,.31,0,.47.01,4.4.24,7.92,4.24,7.85,8.93-.04,3.05-1.8,5.72-4.58,6.97-1.43.64-2.2,2.22-1.82,3.74l3.97,16.03h-11.8Z"/></svg>